<svg xmlns="http://www.w3.org/2000/svg" viewBox="0 0 512 512">
  <rect width="512" height="512" rx="120" fill="#122033"/>
  <circle cx="256" cy="256" r="150" fill="#ff8a3d"/>
  <circle cx="256" cy="256" r="108" fill="#08111f"/>
  <path d="M256 156c-30.928 0-56 25.072-56 56v44c0 30.928 25.072 56 56 56s56-25.072 56-56v-44c0-30.928-25.072-56-56-56Zm96 100a12 12 0 1 0-24 0c0 39.104-31.472 71.36-72 75.584V372h-28v-40.416c-40.528-4.224-72-36.48-72-75.584a12 12 0 1 0-24 0c0 49.888 38.272 91.008 88 95.568V392h72v-40.432c49.728-4.56 88-45.68 88-95.568Z" fill="#5eead4"/>
</svg>
