<svg xmlns="http://www.w3.org/2000/svg" viewBox="0 0 512 512">
  <rect width="512" height="512" fill="#122033"/>
  <rect x="76" y="76" width="360" height="360" rx="96" fill="#08111f"/>
  <circle cx="256" cy="256" r="132" fill="#ff8a3d"/>
  <circle cx="256" cy="256" r="88" fill="#122033"/>
  <path d="M256 172c-26.51 0-48 21.49-48 48v36c0 26.51 21.49 48 48 48s48-21.49 48-48v-36c0-26.51-21.49-48-48-48Zm84 84a12 12 0 1 0-24 0c0 33.137-26.863 60-60 60s-60-26.863-60-60a12 12 0 1 0-24 0c0 40.389 29.987 73.775 69 78.943V368h30v-33.057c39.013-5.168 69-38.554 69-78.943Z" fill="#5eead4"/>
</svg>
